<svg xmlns="http://www.w3.org/2000/svg" viewBox="0 0 312.38 74.49"><defs><style>.cls-1{fill:#199ed9;}.cls-2{fill:#8fc640;}.cls-3{fill:#189eda;}</style></defs><title>yolohealth_logo_colour</title><g id="Layer_2" data-name="Layer 2"><g id="Layer_1-2" data-name="Layer 1"><path class="cls-1" d="M64.63,11.75A15.93,15.93,0,1,0,80.57,27.68,16,16,0,0,0,64.63,11.75Zm9.12,15.93a9.12,9.12,0,1,1-9.12-9.12A9.13,9.13,0,0,1,73.75,27.68Z"/><path class="cls-1" d="M113.42,11.75a15.93,15.93,0,1,0,15.93,15.93A16,16,0,0,0,113.42,11.75Zm9.12,15.93a9.12,9.12,0,1,1-9.12-9.12A9.13,9.13,0,0,1,122.54,27.68Z"/><path class="cls-1" d="M89,.11a3.41,3.41,0,0,0-3.41,3.41v36.7a3.41,3.41,0,1,0,6.82,0V3.51A3.41,3.41,0,0,0,89,.11Z"/><path class="cls-2" d="M247.86.14a3.41,3.41,0,0,0-3.41,3.41v36.7a3.41,3.41,0,0,0,6.82,0V3.55A3.41,3.41,0,0,0,247.86.14Z"/><path class="cls-2" d="M200.14,30a3.17,3.17,0,0,0,1-2.37,17.11,17.11,0,0,0-1.81-7.94,13.8,13.8,0,0,0-5.17-5.57,14.45,14.45,0,0,0-7.6-2,15.05,15.05,0,0,0-7.83,2.06,14.39,14.39,0,0,0-5.4,5.75,17.45,17.45,0,0,0-1.92,8.24,16.59,16.59,0,0,0,2,8.21,14.72,14.72,0,0,0,5.7,5.73,16.61,16.61,0,0,0,13.81,1,15.73,15.73,0,0,0,4.87-2.72,3,3,0,0,0,1-2.26,3.33,3.33,0,0,0-1.17-2.49l-.11-.09a3.46,3.46,0,0,0-4.32.19,7.89,7.89,0,0,1-2.59,1.38,10.31,10.31,0,0,1-3.34.58,9.15,9.15,0,0,1-6.38-2.3,8.76,8.76,0,0,1-2.64-4.5h19.5A3.32,3.32,0,0,0,200.14,30Zm-5.91-5.31H178.48a8.83,8.83,0,0,1,2.42-4,7.92,7.92,0,0,1,5.63-2.08A7.5,7.5,0,0,1,192,20.58,8.38,8.38,0,0,1,194.23,24.65Z"/><path class="cls-2" d="M235.85,19.78A15.39,15.39,0,0,0,230.08,14a16.75,16.75,0,0,0-16.25,0,15.39,15.39,0,0,0-5.77,5.79,16.22,16.22,0,0,0-2.1,8.15A16.41,16.41,0,0,0,208,36a15.22,15.22,0,0,0,13.53,7.88,15,15,0,0,0,6.88-1.6,14.8,14.8,0,0,0,2.62-1.7,3.26,3.26,0,0,0,1,2.09,3.46,3.46,0,0,0,2.45.95,3.41,3.41,0,0,0,2.47-1,3.35,3.35,0,0,0,1-2.42V27.93A16.23,16.23,0,0,0,235.85,19.78Zm-4.72,8.15a9.92,9.92,0,0,1-1.21,4.89,8.86,8.86,0,0,1-3.28,3.37A9.11,9.11,0,0,1,222,37.41a9.25,9.25,0,0,1-4.71-1.22,8.79,8.79,0,0,1-3.3-3.37,9.9,9.9,0,0,1-1.21-4.89A9.91,9.91,0,0,1,213.95,23a9,9,0,0,1,3.31-3.4A9.11,9.11,0,0,1,222,18.4a8.91,8.91,0,0,1,8,4.64A9.92,9.92,0,0,1,231.12,27.93Z"/><path class="cls-2" d="M277.24,37.83a3.17,3.17,0,0,0-2.41-1h-1.41a3.86,3.86,0,0,1-3-1.25,4.86,4.86,0,0,1-1.19-3.41V19.55h4.5a3.23,3.23,0,0,0,2.34-.92A3.1,3.1,0,0,0,277,16.4a3.17,3.17,0,0,0-.92-2.29,3.23,3.23,0,0,0-2.34-.91h-4.5V3.46a3.38,3.38,0,0,0-1-2.47,3.42,3.42,0,0,0-2.47-1,3.32,3.32,0,0,0-2.47,1,3.43,3.43,0,0,0-.94,2.45V13.2h-2a3.22,3.22,0,0,0-2.34.91,3.15,3.15,0,0,0-.92,2.29,3.09,3.09,0,0,0,.91,2.23,3.22,3.22,0,0,0,2.34.92h2V32.12a12.14,12.14,0,0,0,1.4,5.84,10.76,10.76,0,0,0,9.66,5.7h1.1a3.67,3.67,0,0,0,2.53-.95,3.26,3.26,0,0,0,1.09-2.46A3.48,3.48,0,0,0,277.24,37.83Z"/><path class="cls-2" d="M152,11.75a14,14,0,0,0-7.4,2.1V3.73a3.41,3.41,0,0,0-6.82,0v36.7a3.41,3.41,0,0,0,6.82,0V26a7.4,7.4,0,0,1,14.8,0V40.5a3.41,3.41,0,0,0,6.82,0V26A14.24,14.24,0,0,0,152,11.75Z"/><path class="cls-2" d="M298.17,12.07a14,14,0,0,0-7.4,2.1V4.06a3.41,3.41,0,0,0-6.82,0v36.7a3.41,3.41,0,0,0,6.82,0V26.29a7.4,7.4,0,0,1,14.8,0V40.82a3.41,3.41,0,0,0,6.82,0V26.29A14.23,14.23,0,0,0,298.17,12.07Z"/><path class="cls-3" d="M43.36,10.27a7.24,7.24,0,0,0-9.88-2.68,3.41,3.41,0,0,0,3.39,5.91.42.42,0,0,1,.57.16.41.41,0,0,1,0,.32.42.42,0,0,1-.07.14,3.4,3.4,0,0,0-1.95,3.07V32c0,3.22-3,5.84-6.77,5.84S21.92,35.23,21.92,32V17.19a3.39,3.39,0,0,0-1.83-3,.4.4,0,0,1-.1-.52.42.42,0,0,1,.57-.15A3.41,3.41,0,0,0,24,7.59a7.24,7.24,0,0,0-8.85,11.26V32c0,5.88,4.34,10.83,10.18,12.24V60.74a6.93,6.93,0,0,1-13.4,2.47,8.29,8.29,0,1,0-7,.07,13.74,13.74,0,0,0,27.25-2.54V44.25C38,42.83,42.29,37.89,42.29,32V18.89a7.23,7.23,0,0,0,1.07-8.63ZM8.3,54.26a1.48,1.48,0,1,1-1.48,1.48A1.48,1.48,0,0,1,8.3,54.26Z"/><path class="cls-1" d="M145.88,53.21a.87.87,0,0,0-.26.65v3.76h-6V53.86a.89.89,0,0,0-.25-.65,1,1,0,0,0-1.29,0,.87.87,0,0,0-.26.65v9.32a.88.88,0,0,0,.26.64.93.93,0,0,0,1.29,0,.89.89,0,0,0,.25-.64V59.26h6v3.92a.89.89,0,0,0,.9.9.86.86,0,0,0,.63-.25.88.88,0,0,0,.25-.65V53.86a.88.88,0,0,0-.25-.65A.93.93,0,0,0,145.88,53.21Z"/><path class="cls-1" d="M155.44,56.62a3.66,3.66,0,0,0-1.93-.5,4,4,0,0,0-2,.51,3.64,3.64,0,0,0-1.39,1.44,4.27,4.27,0,0,0-.5,2.07,4,4,0,0,0,.53,2.06,3.74,3.74,0,0,0,1.47,1.43,4.39,4.39,0,0,0,3.5.27,4,4,0,0,0,1.22-.63.69.69,0,0,0,.29-.56.77.77,0,0,0-.31-.61.91.91,0,0,0-1.11,0,2.39,2.39,0,0,1-.68.34,2.61,2.61,0,0,1-2.45-.41,2.19,2.19,0,0,1-.77-1.22h5a.81.81,0,0,0,.58-.22.76.76,0,0,0,.24-.57,4.52,4.52,0,0,0-.43-2A3.29,3.29,0,0,0,155.44,56.62Zm-4.12,2.71a2.1,2.1,0,0,1,2.19-1.65,1.83,1.83,0,0,1,1.34.5,2.18,2.18,0,0,1,.6,1.15Z"/><path class="cls-1" d="M164.23,56.65a3.94,3.94,0,0,0-2-.53,4,4,0,0,0-2,.53,3.83,3.83,0,0,0-1.44,1.45,4.09,4.09,0,0,0-.52,2,4.31,4.31,0,0,0,.48,2A3.67,3.67,0,0,0,160,63.61a3.56,3.56,0,0,0,1.89.52,3.57,3.57,0,0,0,2.47-1v0a.87.87,0,0,0,.25.63.92.92,0,0,0,1.27,0,.87.87,0,0,0,.25-.63V60.14a4,4,0,0,0-.53-2A3.9,3.9,0,0,0,164.23,56.65Zm-.06,4.71a2.21,2.21,0,0,1-.81.85,2.18,2.18,0,0,1-1.15.31,2.15,2.15,0,0,1-1.15-.31,2.26,2.26,0,0,1-.81-.85,2.5,2.5,0,0,1-.3-1.22,2.54,2.54,0,0,1,.3-1.23,2.25,2.25,0,0,1,.81-.86,2.16,2.16,0,0,1,1.15-.31,2.17,2.17,0,0,1,2,1.17,2.59,2.59,0,0,1,.29,1.23A2.55,2.55,0,0,1,164.17,61.36Z"/><path class="cls-1" d="M176.12,62.33h-.47a.74.74,0,0,1-.6-.3,1.22,1.22,0,0,1-.26-.8v-4h1a.85.85,0,0,0,.6-.22.72.72,0,0,0,.24-.55.75.75,0,0,0-.24-.58.85.85,0,0,0-.59-.21h-1V53.83a.86.86,0,0,0-.25-.63.92.92,0,0,0-1.26,0,.86.86,0,0,0-.25.63V55.7h-.45a.85.85,0,0,0-.6.22.75.75,0,0,0-.24.58A.72.72,0,0,0,172,57a.85.85,0,0,0,.6.21H173v4a3.09,3.09,0,0,0,.34,1.45,2.64,2.64,0,0,0,.94,1,2.46,2.46,0,0,0,1.33.38h.25a1.06,1.06,0,0,0,.71-.24.8.8,0,0,0,.29-.64.9.9,0,0,0-.22-.62A.73.73,0,0,0,176.12,62.33Z"/><path class="cls-1" d="M184.32,56.54a3.86,3.86,0,0,0-3.16-.18,3.34,3.34,0,0,0-.79.44v-3a.9.9,0,0,0-1.52-.64.86.86,0,0,0-.26.64v9.36a.86.86,0,0,0,.25.63.93.93,0,0,0,1.28,0,.88.88,0,0,0,.25-.63V59.32a1.37,1.37,0,0,1,.24-.79,1.7,1.7,0,0,1,.67-.57,2.18,2.18,0,0,1,1-.22,1.85,1.85,0,0,1,2,2.07v3.39a.89.89,0,1,0,1.78,0V59.82a4.17,4.17,0,0,0-.45-2A3.11,3.11,0,0,0,184.32,56.54Z"/><path class="cls-1" d="M191.87,57.73a2.19,2.19,0,0,1,.86.16,2,2,0,0,1,.68.5.87.87,0,0,0,.68.31.72.72,0,0,0,.42-.13.79.79,0,0,0,.38-.66.69.69,0,0,0-.18-.48,3.62,3.62,0,0,0-2.84-1.3,4,4,0,0,0-2,.51,3.63,3.63,0,0,0-1.4,1.44,4.27,4.27,0,0,0-.5,2.07,4.11,4.11,0,0,0,.51,2,3.73,3.73,0,0,0,1.43,1.44,4.08,4.08,0,0,0,2,.52,3.7,3.7,0,0,0,2.61-1,.7.7,0,0,0,.22-.5.83.83,0,0,0-.34-.65.87.87,0,0,0-1.1.07,2.12,2.12,0,0,1-1.4.44,2.27,2.27,0,0,1-1.18-.3,2.11,2.11,0,0,1-.8-.84,2.62,2.62,0,0,1-.29-1.24,2.48,2.48,0,0,1,.61-1.75A2,2,0,0,1,191.87,57.73Z"/><path class="cls-1" d="M202.58,56.65a3.94,3.94,0,0,0-2-.53,4,4,0,0,0-2,.53,3.83,3.83,0,0,0-1.44,1.45,4.09,4.09,0,0,0-.52,2,4.31,4.31,0,0,0,.48,2,3.67,3.67,0,0,0,1.33,1.44,3.56,3.56,0,0,0,1.89.52,3.57,3.57,0,0,0,2.47-1v0a.87.87,0,0,0,.25.63.92.92,0,0,0,1.27,0,.87.87,0,0,0,.25-.63V60.14a4,4,0,0,0-.53-2A3.9,3.9,0,0,0,202.58,56.65Zm-.06,4.71a2.21,2.21,0,0,1-.81.85,2.18,2.18,0,0,1-1.15.31,2.15,2.15,0,0,1-1.15-.31,2.26,2.26,0,0,1-.81-.85,2.5,2.5,0,0,1-.3-1.22,2.54,2.54,0,0,1,.3-1.23,2.25,2.25,0,0,1,.81-.86,2.16,2.16,0,0,1,1.15-.31,2.17,2.17,0,0,1,2,1.17,2.59,2.59,0,0,1,.29,1.23A2.55,2.55,0,0,1,202.52,61.36Z"/><path class="cls-1" d="M211.71,56.34a2.64,2.64,0,0,0-1.23-.24,3.29,3.29,0,0,0-1.37.29,3.18,3.18,0,0,0-.77.49.77.77,0,0,0-.86-.7.81.81,0,0,0-.88.88v6.15a.87.87,0,0,0,.24.65.89.89,0,0,0,.64.22.87.87,0,0,0,.65-.24.89.89,0,0,0,.22-.64v-4a1.26,1.26,0,0,1,.53-1.08,2.42,2.42,0,0,1,1.48-.42,5.25,5.25,0,0,1,.86.09l.24,0a.72.72,0,0,0,.73-.57.61.61,0,0,0,0-.2A.81.81,0,0,0,211.71,56.34Z"/><path class="cls-1" d="M218.53,56.62a3.66,3.66,0,0,0-1.93-.5,4,4,0,0,0-2,.51,3.64,3.64,0,0,0-1.39,1.44,4.27,4.27,0,0,0-.5,2.07,4,4,0,0,0,.53,2.06,3.74,3.74,0,0,0,1.47,1.43,4.39,4.39,0,0,0,3.5.27,4,4,0,0,0,1.22-.63.69.69,0,0,0,.29-.56.77.77,0,0,0-.31-.61.91.91,0,0,0-1.11,0,2.39,2.39,0,0,1-.68.34,2.61,2.61,0,0,1-2.45-.41,2.19,2.19,0,0,1-.77-1.22h5a.81.81,0,0,0,.58-.22.76.76,0,0,0,.24-.57,4.52,4.52,0,0,0-.43-2A3.29,3.29,0,0,0,218.53,56.62Zm-4.12,2.71a2.1,2.1,0,0,1,2.19-1.65,1.83,1.83,0,0,1,1.34.5,2.18,2.18,0,0,1,.6,1.15Z"/><path class="cls-1" d="M231.83,59.48a3.25,3.25,0,0,0,1.76-3,3.65,3.65,0,0,0-.47-1.86,3.29,3.29,0,0,0-1.33-1.27,4,4,0,0,0-1.91-.45H227.4a.89.89,0,0,0-.64.25.87.87,0,0,0-.26.65v9.32a.88.88,0,0,0,.26.64.93.93,0,0,0,1.29,0,.89.89,0,0,0,.25-.64V59.94H230l2.31,3.71a.89.89,0,0,0,.78.43.86.86,0,0,0,.63-.24.81.81,0,0,0,.24-.59,1,1,0,0,0-.17-.55Zm-1.95-1.24H228.3V54.65h1.58a2,2,0,0,1,1.41.53,1.77,1.77,0,0,1,.55,1.35,1.54,1.54,0,0,1-.54,1.23A2.06,2.06,0,0,1,229.88,58.24Z"/><path class="cls-1" d="M240.85,56.62a3.66,3.66,0,0,0-1.93-.5,4,4,0,0,0-2,.51,3.64,3.64,0,0,0-1.39,1.44,4.27,4.27,0,0,0-.5,2.07,4,4,0,0,0,.53,2.06A3.74,3.74,0,0,0,237,63.63a4.39,4.39,0,0,0,3.5.27,4,4,0,0,0,1.22-.63.69.69,0,0,0,.29-.56.77.77,0,0,0-.31-.61.91.91,0,0,0-1.11,0,2.39,2.39,0,0,1-.68.34,2.61,2.61,0,0,1-2.45-.41,2.19,2.19,0,0,1-.77-1.22h5a.81.81,0,0,0,.58-.22.76.76,0,0,0,.24-.57,4.52,4.52,0,0,0-.43-2A3.29,3.29,0,0,0,240.85,56.62Zm-4.12,2.71a2.1,2.1,0,0,1,2.19-1.65,1.83,1.83,0,0,1,1.34.5,2.18,2.18,0,0,1,.6,1.15Z"/><path class="cls-1" d="M244.55,53.46a1.1,1.1,0,1,0,1.55,0A1.09,1.09,0,0,0,244.55,53.46Z"/><path class="cls-1" d="M245.33,56.18a.88.88,0,0,0-.63.25.86.86,0,0,0-.26.64v6.13a.9.9,0,0,0,1.53.63.88.88,0,0,0,.25-.63V57.07a.85.85,0,0,0-.89-.89Z"/><path class="cls-1" d="M256.91,56.11a3.41,3.41,0,0,0-1.46.31,3.1,3.1,0,0,0-.94.67,2.59,2.59,0,0,0-.84-.68,3,3,0,0,0-1.34-.3,3.05,3.05,0,0,0-1.14.21,2.79,2.79,0,0,0-.67.38.83.83,0,0,0-.19-.27.94.94,0,0,0-1.26,0,.86.86,0,0,0-.26.64v6.13a.9.9,0,0,0,1.53.63.88.88,0,0,0,.25-.63V59.32a1.59,1.59,0,0,1,.41-1.14,1.36,1.36,0,0,1,1.05-.44,1.3,1.3,0,0,1,1,.38,1.59,1.59,0,0,1,.37,1.14v3.94a.9.9,0,0,0,1.53.63.88.88,0,0,0,.25-.63V59.32a1.59,1.59,0,0,1,.41-1.14,1.35,1.35,0,0,1,1-.44,1.3,1.3,0,0,1,1,.38,1.59,1.59,0,0,1,.37,1.14v3.94a.9.9,0,0,0,1.53.63.88.88,0,0,0,.25-.63V59.27A3.27,3.27,0,0,0,259,57,2.72,2.72,0,0,0,256.91,56.11Z"/><path class="cls-1" d="M267.68,56.65a3.94,3.94,0,0,0-2-.53,4,4,0,0,0-2,.53,3.83,3.83,0,0,0-1.44,1.45,4.09,4.09,0,0,0-.52,2,4.31,4.31,0,0,0,.48,2,3.67,3.67,0,0,0,1.33,1.44,3.56,3.56,0,0,0,1.89.52,3.57,3.57,0,0,0,2.47-1v0a.87.87,0,0,0,.25.63.92.92,0,0,0,1.27,0,.87.87,0,0,0,.25-.63V60.14a4,4,0,0,0-.53-2A3.9,3.9,0,0,0,267.68,56.65Zm-.06,4.71a2.21,2.21,0,0,1-.81.85,2.18,2.18,0,0,1-1.15.31,2.15,2.15,0,0,1-1.15-.31,2.26,2.26,0,0,1-.81-.85,2.5,2.5,0,0,1-.3-1.22,2.54,2.54,0,0,1,.3-1.23,2.25,2.25,0,0,1,.81-.86,2.16,2.16,0,0,1,1.15-.31,2.17,2.17,0,0,1,2,1.17,2.59,2.59,0,0,1,.29,1.23A2.55,2.55,0,0,1,267.62,61.36Z"/><path class="cls-1" d="M277.34,56.63h0a4.08,4.08,0,0,0-2-.51,4.15,4.15,0,0,0-2.06.51,3.66,3.66,0,0,0-1.42,1.43,4.22,4.22,0,0,0-.51,2.07,4.43,4.43,0,0,0,.47,2.06,3.55,3.55,0,0,0,1.32,1.43,3.65,3.65,0,0,0,1.92.52,3.19,3.19,0,0,0,1.68-.45,3.3,3.3,0,0,0,.84-.74V63a3,3,0,0,1-.31,1.41,2.14,2.14,0,0,1-.81.88,2.2,2.2,0,0,1-1.13.3,2.92,2.92,0,0,1-1.2-.24,2.24,2.24,0,0,1-.86-.68.85.85,0,0,0-1.21-.2.78.78,0,0,0-.37.65.81.81,0,0,0,.19.5,4.06,4.06,0,0,0,1.5,1.18,4.57,4.57,0,0,0,1.92.41,4,4,0,0,0,2.07-.54,3.78,3.78,0,0,0,1.43-1.48,4.31,4.31,0,0,0,.5-2.07v-3a4.17,4.17,0,0,0-.51-2.07A3.72,3.72,0,0,0,277.34,56.63Zm-.08,4.74a2.11,2.11,0,0,1-.8.84,2.39,2.39,0,0,1-2.33,0,2.16,2.16,0,0,1-.81-.84,2.58,2.58,0,0,1-.29-1.24,2.62,2.62,0,0,1,.29-1.25,2.14,2.14,0,0,1,.81-.85,2.38,2.38,0,0,1,2.33,0,2.1,2.1,0,0,1,.8.85,2.66,2.66,0,0,1,.29,1.25A2.63,2.63,0,0,1,277.27,61.38Z"/><path class="cls-1" d="M281.59,53.46a1.1,1.1,0,1,0,1.55,0A1.09,1.09,0,0,0,281.59,53.46Z"/><path class="cls-1" d="M282.37,56.18a.88.88,0,0,0-.63.25.86.86,0,0,0-.26.64v6.13a.9.9,0,0,0,1.53.63.88.88,0,0,0,.25-.63V57.07a.85.85,0,0,0-.89-.89Z"/><path class="cls-1" d="M291.57,56.54a3.86,3.86,0,0,0-3.16-.18,3.33,3.33,0,0,0-.82.46.82.82,0,0,0-.22-.4,1,1,0,0,0-1.27,0,.86.86,0,0,0-.26.64v6.14a.86.86,0,0,0,.25.63.93.93,0,0,0,1.28,0,.88.88,0,0,0,.25-.63V59.32a1.37,1.37,0,0,1,.24-.79,1.7,1.7,0,0,1,.67-.57,2.18,2.18,0,0,1,1-.22,1.85,1.85,0,0,1,2,2.07v3.39a.89.89,0,1,0,1.78,0V59.82a4.17,4.17,0,0,0-.45-2A3.11,3.11,0,0,0,291.57,56.54Z"/><path class="cls-1" d="M301,56.62a3.66,3.66,0,0,0-1.93-.5,4,4,0,0,0-2,.51,3.64,3.64,0,0,0-1.39,1.44,4.27,4.27,0,0,0-.5,2.07,4,4,0,0,0,.53,2.06,3.74,3.74,0,0,0,1.47,1.43,4.39,4.39,0,0,0,3.5.27,4,4,0,0,0,1.22-.63.69.69,0,0,0,.29-.56.77.77,0,0,0-.31-.61.91.91,0,0,0-1.11,0,2.39,2.39,0,0,1-.68.34,2.61,2.61,0,0,1-2.45-.41,2.19,2.19,0,0,1-.77-1.22h5a.81.81,0,0,0,.58-.22.76.76,0,0,0,.24-.57,4.52,4.52,0,0,0-.43-2A3.29,3.29,0,0,0,301,56.62Zm-4.12,2.71a2.1,2.1,0,0,1,2.19-1.65,1.83,1.83,0,0,1,1.34.5,2.18,2.18,0,0,1,.6,1.15Z"/><path class="cls-1" d="M311.77,53.84a.87.87,0,0,0-.25-.64h0a.95.95,0,0,0-1.27,0,.86.86,0,0,0-.26.64v3.24a3.66,3.66,0,0,0-4.37-.44,3.67,3.67,0,0,0-1.33,1.44,4.32,4.32,0,0,0-.48,2,4.09,4.09,0,0,0,.52,2,3.82,3.82,0,0,0,1.44,1.45,4,4,0,0,0,2,.53,3.94,3.94,0,0,0,2-.53l.25-.17a.85.85,0,0,0,.84.75.86.86,0,0,0,.86-.86V60.39h0c0-.09,0-.17,0-.26Zm-2,7.51h0a2.17,2.17,0,0,1-2,1.17,2.15,2.15,0,0,1-1.15-.31,2.24,2.24,0,0,1-.81-.86,2.54,2.54,0,0,1-.3-1.23,2.5,2.5,0,0,1,.3-1.22,2.27,2.27,0,0,1,.81-.85,2.16,2.16,0,0,1,1.15-.31,2.18,2.18,0,0,1,2,1.16,2.55,2.55,0,0,1,.29,1.23A2.58,2.58,0,0,1,309.75,61.36Z"/><path class="cls-1" d="M168.85,53a.82.82,0,0,0-.82.82v9.41a.82.82,0,1,0,1.65,0V53.78A.82.82,0,0,0,168.85,53Z"/></g></g></svg>